<?xml version="1.0" encoding="UTF-8"?><svg xmlns="http://www.w3.org/2000/svg" xmlns:xlink="http://www.w3.org/1999/xlink" contentScriptType="text/ecmascript" zoomAndPan="magnify" contentStyleType="text/css" preserveAspectRatio="xMidYMid meet" version="1.0"><g id="scaleSvg" transform="scale(0.24509803921568626)"><g id="0"><polygon fill="grey" id="GridWithoutText" style="stroke:black;stroke-width:3.0;" points="0,0 0,2142.0 2142.0,2142.0 2142.0,0 0,0"/><defs><line y2="2142.0" id="gridLineX" style="stroke:black;stroke-width:3.0;" y1="0"/><line id="gridLineY" style="stroke:black;stroke-width:3.0;" x1="0" x2="2142.0"/></defs><use x="42.0" xlink:href="#gridLineX"/><use x="84.0" xlink:href="#gridLineX"/><use x="126.0" xlink:href="#gridLineX"/><use x="168.0" xlink:href="#gridLineX"/><use x="210.0" xlink:href="#gridLineX"/><use x="252.0" xlink:href="#gridLineX"/><use x="294.0" xlink:href="#gridLineX"/><use x="336.0" xlink:href="#gridLineX"/><use x="378.0" xlink:href="#gridLineX"/><use x="420.0" xlink:href="#gridLineX"/><use x="462.0" xlink:href="#gridLineX"/><use x="504.0" xlink:href="#gridLineX"/><use x="546.0" xlink:href="#gridLineX"/><use x="588.0" xlink:href="#gridLineX"/><use x="630.0" xlink:href="#gridLineX"/><use x="672.0" xlink:href="#gridLineX"/><use x="714.0" xlink:href="#gridLineX"/><use x="756.0" xlink:href="#gridLineX"/><use x="798.0" xlink:href="#gridLineX"/><use x="840.0" xlink:href="#gridLineX"/><use x="882.0" xlink:href="#gridLineX"/><use x="924.0" xlink:href="#gridLineX"/><use x="966.0" xlink:href="#gridLineX"/><use x="1008.0" xlink:href="#gridLineX"/><use x="1050.0" xlink:href="#gridLineX"/><use x="1092.0" xlink:href="#gridLineX"/><use x="1134.0" xlink:href="#gridLineX"/><use x="1176.0" xlink:href="#gridLineX"/><use x="1218.0" xlink:href="#gridLineX"/><use x="1260.0" xlink:href="#gridLineX"/><use x="1302.0" xlink:href="#gridLineX"/><use x="1344.0" xlink:href="#gridLineX"/><use x="1386.0" xlink:href="#gridLineX"/><use x="1428.0" xlink:href="#gridLineX"/><use x="1470.0" xlink:href="#gridLineX"/><use x="1512.0" xlink:href="#gridLineX"/><use x="1554.0" xlink:href="#gridLineX"/><use x="1596.0" xlink:href="#gridLineX"/><use x="1638.0" xlink:href="#gridLineX"/><use x="1680.0" xlink:href="#gridLineX"/><use x="1722.0" xlink:href="#gridLineX"/><use x="1764.0" xlink:href="#gridLineX"/><use x="1806.0" xlink:href="#gridLineX"/><use x="1848.0" xlink:href="#gridLineX"/><use x="1890.0" xlink:href="#gridLineX"/><use x="1932.0" xlink:href="#gridLineX"/><use x="1974.0" xlink:href="#gridLineX"/><use x="2016.0" xlink:href="#gridLineX"/><use x="2058.0" xlink:href="#gridLineX"/><use x="2100.0" xlink:href="#gridLineX"/><use xlink:href="#gridLineY" y="42.0"/><use xlink:href="#gridLineY" y="84.0"/><use xlink:href="#gridLineY" y="126.0"/><use xlink:href="#gridLineY" y="168.0"/><use xlink:href="#gridLineY" y="210.0"/><use xlink:href="#gridLineY" y="252.0"/><use xlink:href="#gridLineY" y="294.0"/><use xlink:href="#gridLineY" y="336.0"/><use xlink:href="#gridLineY" y="378.0"/><use xlink:href="#gridLineY" y="420.0"/><use xlink:href="#gridLineY" y="462.0"/><use xlink:href="#gridLineY" y="504.0"/><use xlink:href="#gridLineY" y="546.0"/><use xlink:href="#gridLineY" y="588.0"/><use xlink:href="#gridLineY" y="630.0"/><use xlink:href="#gridLineY" y="672.0"/><use xlink:href="#gridLineY" y="714.0"/><use xlink:href="#gridLineY" y="756.0"/><use xlink:href="#gridLineY" y="798.0"/><use xlink:href="#gridLineY" y="840.0"/><use xlink:href="#gridLineY" y="882.0"/><use xlink:href="#gridLineY" y="924.0"/><use xlink:href="#gridLineY" y="966.0"/><use xlink:href="#gridLineY" y="1008.0"/><use xlink:href="#gridLineY" y="1050.0"/><use xlink:href="#gridLineY" y="1092.0"/><use xlink:href="#gridLineY" y="1134.0"/><use xlink:href="#gridLineY" y="1176.0"/><use xlink:href="#gridLineY" y="1218.0"/><use xlink:href="#gridLineY" y="1260.0"/><use xlink:href="#gridLineY" y="1302.0"/><use xlink:href="#gridLineY" y="1344.0"/><use xlink:href="#gridLineY" y="1386.0"/><use xlink:href="#gridLineY" y="1428.0"/><use xlink:href="#gridLineY" y="1470.0"/><use xlink:href="#gridLineY" y="1512.0"/><use xlink:href="#gridLineY" y="1554.0"/><use xlink:href="#gridLineY" y="1596.0"/><use xlink:href="#gridLineY" y="1638.0"/><use xlink:href="#gridLineY" y="1680.0"/><use xlink:href="#gridLineY" y="1722.0"/><use xlink:href="#gridLineY" y="1764.0"/><use xlink:href="#gridLineY" y="1806.0"/><use xlink:href="#gridLineY" y="1848.0"/><use xlink:href="#gridLineY" y="1890.0"/><use xlink:href="#gridLineY" y="1932.0"/><use xlink:href="#gridLineY" y="1974.0"/><use xlink:href="#gridLineY" y="2016.0"/><use xlink:href="#gridLineY" y="2058.0"/><use xlink:href="#gridLineY" y="2100.0"/></g><defs><g id="gold_0"><path style="fill:#ffd700;fill-rule:evenodd;stroke:#000000;stroke-width:1.0px;stroke-linecap:butt;stroke-linejoin:miter;" d="M6.5015479876160995,27.45098039215686 C3.1987814166031985,26.923076923076923 2.5,27.272727272727273 2.5,31.34328358208955 C2.5,34.146341463414636 3.7004405286343616,33.87096774193549 7.0,33.87096774193549 C10.096153846153845,33.87096774193549 9.610983981693364,31.57894736842105 12.5,32.55813953488372 C14.383561643835616,32.8125 17.00404858299595,32.8125 19.53488372093023,32.8125 C21.98952879581152,32.8125 19.444444444444443,27.63157894736842 20.48780487804878,25.454545454545457 C21.761658031088082,22.7027027027027 24.56140350877193,26.08695652173913 24.56140350877193,20.895522388059703 C24.56140350877193,19.004524886877828 20.588235294117645,17.872340425531913 19.53488372093023,17.42738589211618 C24.56140350877193,19.004524886877828 20.588235294117645,17.872340425531913 19.53488372093023,17.42738589211618 C16.40625,15.789473684210526 15.000000000000002,18.502202643171806 14.0,20.388349514563107 C13.504823151125402,21.31979695431472 9.09090909090909,21.98952879581152 8.502024291497975,22.58064516129032 C8.4,22.58064516129032 6.60377358490566,24.85207100591716 6.5015479876160995,24.85207100591716 C5.801104972375691,25.149700598802397 6.5015479876160995,26.582278481012658 6.5015479876160995,27.45098039215686 z"/><path style="fill:#ffd700;fill-rule:evenodd;stroke:#000000;stroke-width:1.0px;stroke-linecap:butt;stroke-linejoin:miter;" d="M24.56140350877193,32.55813953488372 C24.41860465116279,28.767123287671232 25.925925925925924,29.166666666666668 28.96551724137931,28.37837837837838 C30.65693430656934,27.81456953642384 31.11111111111111,25.60975609756098 32.55813953488372,24.41860465116279 C34.42622950819672,22.45989304812834 37.83783783783783,26.582278481012658 37.83783783783783,26.923076923076923 C39.62264150943396,28.571428571428573 33.6,26.751592356687897 36.8421052631579,30.434782608695656 C38.888888888888886,32.30769230769231 38.18181818181818,32.55813953488372 36.52173913043479,34.42622950819672 C36.20689655172414,34.710743801652896 33.6,35.8974358974359 32.55813953488372,36.8421052631579 C31.34328358208955,37.83783783783783 26.41509433962264,36.20689655172414 25.454545454545457,35.8974358974359 C24.277456647398843,35.59322033898305 24.705882352941178,33.6 24.56140350877193,32.55813953488372 z"/><path style="fill:#ffd700;fill-rule:evenodd;stroke:#000000;stroke-width:1.0px;stroke-linecap:butt;stroke-linejoin:miter;" d="M26.923076923076923,8.898305084745763 C24.137931034482758,10.194174757281553 25.0,12.0 25.0,15.909090909090908 C25.0,19.004524886877828 28.767123287671232,15.613382899628252 28.96551724137931,14.383561643835616 C29.370629370629374,13.003095975232199 35.0,14.18918918918919 35.59322033898305,14.383561643835616 C39.25233644859813,15.272727272727273 37.83783783783783,12.5 36.8421052631579,10.909090909090908 C35.8974358974359,8.60655737704918 35.0,8.0 34.42622950819672,6.402439024390245 C33.6,3.0 29.577464788732396,5.801104972375691 28.96551724137931,6.402439024390245 C28.37837837837838,7.094594594594595 27.63157894736842,8.0 26.923076923076923,8.898305084745763 z"/><path style="stroke:gold;stroke-width:1.0;stroke-linecap:butt;stroke-linejoin:miter;" d="M1.2,22.58064516129032L3.099630996309963,24.56140350877193M3.099630996309963,35.59322033898305L1.6997167138810199,37.83783783783783M15.671641791044776,11.89801699716714L15.96958174904943,14.583333333333334M7.500000000000001,36.20689655172414L7.394366197183099,38.888888888888886M18.025751072961373,35.294117647058826L18.58407079646018,37.83783783783783M5.3984575835475574,18.18181818181818L7.394366197183099,20.0M10.294117647058822,14.685314685314687L11.41304347826087,17.21311475409836M12.883435582822086,34.710743801652896L12.80487804878049,37.49999999999999M38.532110091743114,29.577464788732396L41.17647058823529,29.166666666666668M38.888888888888886,34.42622950819672L41.584158415841586,35.294117647058826M40.77669902912621,23.204419889502763L38.888888888888886,25.149700598802397M33.07086614173228,38.532110091743114L33.333333333333336,41.17647058823529M26.923076923076923,38.532110091743114L26.41509433962264,41.17647058823529M37.16814159292036,37.49999999999999L38.532110091743114,39.62264150943396M37.49999999999999,19.626168224299064L36.20689655172414,22.105263157894736M38.532110091743114,10.5L41.17647058823529,10.606060606060606M38.532110091743114,15.96958174904943L40.38461538461538,17.72151898734177M30.000000000000004,1.2L30.882352941176467,3.7004405286343616M37.83783783783783,1.8995929443690638L35.8974358974359,4.0M40.38461538461538,5.8988764044943816L37.83783783783783,7.0M25.149700598802397,2.60061919504644L26.41509433962264,5.0M21.105527638190956,6.698564593301436L22.950819672131146,8.695652173913043"/></g></defs><g id="gold_0"><use xlink:href="#gold_0" x="0.0" y="378.0"/></g><g id="gold_0"><use xlink:href="#gold_0" x="0.0" y="546.0"/></g><g id="gold_0"><use xlink:href="#gold_0" x="0.0" y="1344.0"/></g><g id="gold_0"><use xlink:href="#gold_0" x="42.0" y="336.0"/></g><g id="gold_0"><use xlink:href="#gold_0" x="42.0" y="1932.0"/></g><defs><g id="tree_0"><defs><g id="treePart_tree_0"><path style="fill:saddlebrown;stroke:black;stroke-width:1;" d="M11.6991643454039,20.895522388059703C11.6991643454039,20.895522388059703 12.0,34.146341463414636 6.095791001451379,36.8421052631579L20.19230769230769,36.8421052631579C20.19230769230769,36.8421052631579 14.285714285714286,34.146341463414636 14.634146341463413,20.895522388059703z"/><path style="fill:limegreen;stroke:black;stroke-width:1;stroke-linecap:butt;stroke-linejoin:miter;" d="M2.5,16.216216216216218C1.6997167138810199,15.498154981549815 1.6997167138810199,14.18918918918919 1.6997167138810199,12.389380530973451C1.6997167138810199,10.909090909090908 2.3001095290251916,10.096153846153845 2.3001095290251916,8.203125C2.3001095290251916,6.60377358490566 3.8009049773755654,5.0 5.303030303030303,5.0C7.094594594594595,5.0 7.204116638078903,4.2 7.500000000000001,3.099630996309963C7.806691449814126,1.8995929443690638 11.023622047244094,2.6992287917737787 12.209302325581396,2.1C13.680781758957655,1.4 13.81578947368421,2.4 16.27906976744186,2.4C17.796610169491526,2.4 17.72151898734177,3.099630996309963 19.71830985915493,3.099630996309963C21.21212121212121,3.099630996309963 20.895522388059703,5.0 21.649484536082475,5.3984575835475574C22.7027027027027,5.801104972375691 22.105263157894736,7.394366197183099 22.82608695652174,8.203125C23.463687150837988,8.805031446540882 24.0,11.41304347826087 23.863636363636363,11.89801699716714C23.728813559322035,12.5 22.45989304812834,14.583333333333334 22.340425531914896,15.671641791044776C22.222222222222225,15.789473684210526 21.649484536082475,17.72151898734177 20.48780487804878,17.796610169491526C19.81132075471698,17.872340425531913 19.444444444444443,18.18181818181818 19.444444444444443,20.588235294117645C19.444444444444443,22.222222222222225 16.600790513833992,20.689655172413794 15.107913669064748,20.689655172413794C13.592233009708739,20.689655172413794 13.4185303514377,21.0 11.602209944751381,21.0C10.606060606060606,21.0 8.502024291497975,16.8 7.706422018348624,20.689655172413794C6.698564593301436,19.71830985915493 6.095791001451379,19.178082191780824 5.698778833107191,19.71830985915493C4.600219058050383,20.689655172413794 3.0,18.34061135371179 2.6992287917737787,18.10344827586207C2.0,17.28395061728395 2.1,18.10344827586207 2.5,16.216216216216218z"/></g></defs><use xlink:href="#treePart_tree_0" x="1.105263157894737" y="1.2727272727272727"/><use xlink:href="#treePart_tree_0" x="16.0" y="1.2"/><use xlink:href="#treePart_tree_0" x="8.0" y="3.0"/></g></defs><g id="tree_0"><use xlink:href="#tree_0" x="84.0" y="126.0"/></g><g id="gold_0"><use xlink:href="#gold_0" x="84.0" y="1554.0"/></g><g id="gold_0"><use xlink:href="#gold_0" x="126.0" y="588.0"/></g><g id="tree_0"><use xlink:href="#tree_0" x="168.0" y="882.0"/></g><g id="gold_0"><use xlink:href="#gold_0" x="168.0" y="1722.0"/></g><g id="gold_0"><use xlink:href="#gold_0" x="210.0" y="84.0"/></g><g id="gold_0"><use xlink:href="#gold_0" x="210.0" y="1092.0"/></g><g id="gold_0"><use xlink:href="#gold_0" x="210.0" y="2016.0"/></g><g id="gold_0"><use xlink:href="#gold_0" x="252.0" y="840.0"/></g><g id="gold_0"><use xlink:href="#gold_0" x="252.0" y="882.0"/></g><g id="gold_0"><use xlink:href="#gold_0" x="252.0" y="1302.0"/></g><g id="gold_0"><use xlink:href="#gold_0" x="252.0" y="1470.0"/></g><g id="gold_0"><use xlink:href="#gold_0" x="252.0" y="1554.0"/></g><g id="gold_0"><use xlink:href="#gold_0" x="252.0" y="1638.0"/></g><g id="gold_0"><use xlink:href="#gold_0" x="294.0" y="0.0"/></g><g id="gold_0"><use xlink:href="#gold_0" x="294.0" y="84.0"/></g><g id="gold_0"><use xlink:href="#gold_0" x="294.0" y="294.0"/></g><g id="gold_0"><use xlink:href="#gold_0" x="294.0" y="630.0"/></g><g id="gold_0"><use xlink:href="#gold_0" x="294.0" y="840.0"/></g><g id="gold_0"><use xlink:href="#gold_0" x="294.0" y="1092.0"/></g><g id="tree_0"><use xlink:href="#tree_0" x="294.0" y="1344.0"/></g><g id="tree_0"><use xlink:href="#tree_0" x="294.0" y="1890.0"/></g><g id="gold_0"><use xlink:href="#gold_0" x="336.0" y="882.0"/></g><g id="gold_0"><use xlink:href="#gold_0" x="336.0" y="966.0"/></g><g id="tree_0"><use xlink:href="#tree_0" x="336.0" y="1050.0"/></g><g id="gold_0"><use xlink:href="#gold_0" x="336.0" y="1386.0"/></g><g id="gold_0"><use xlink:href="#gold_0" x="336.0" y="1512.0"/></g><g id="gold_0"><use xlink:href="#gold_0" x="378.0" y="1386.0"/></g><g id="gold_0"><use xlink:href="#gold_0" x="378.0" y="1680.0"/></g><g id="gold_0"><use xlink:href="#gold_0" x="378.0" y="1764.0"/></g><g id="tree_0"><use xlink:href="#tree_0" x="420.0" y="756.0"/></g><g id="gold_0"><use xlink:href="#gold_0" x="420.0" y="1470.0"/></g><g id="gold_0"><use xlink:href="#gold_0" x="462.0" y="0.0"/></g><g id="gold_0"><use xlink:href="#gold_0" x="462.0" y="462.0"/></g><g id="tree_0"><use xlink:href="#tree_0" x="462.0" y="1134.0"/></g><g id="gold_0"><use xlink:href="#gold_0" x="462.0" y="1176.0"/></g><g id="gold_0"><use xlink:href="#gold_0" x="462.0" y="1218.0"/></g><g id="gold_0"><use xlink:href="#gold_0" x="462.0" y="1344.0"/></g><g id="gold_0"><use xlink:href="#gold_0" x="462.0" y="1764.0"/></g><g id="tree_0"><use xlink:href="#tree_0" x="504.0" y="546.0"/></g><g id="gold_0"><use xlink:href="#gold_0" x="504.0" y="1218.0"/></g><g id="gold_0"><use xlink:href="#gold_0" x="504.0" y="1638.0"/></g><g id="gold_0"><use xlink:href="#gold_0" x="546.0" y="0.0"/></g><g id="gold_0"><use xlink:href="#gold_0" x="546.0" y="1008.0"/></g><g id="gold_0"><use xlink:href="#gold_0" x="546.0" y="1722.0"/></g><g id="gold_0"><use xlink:href="#gold_0" x="588.0" y="42.0"/></g><g id="gold_0"><use xlink:href="#gold_0" x="588.0" y="630.0"/></g><g id="tree_0"><use xlink:href="#tree_0" x="588.0" y="882.0"/></g><g id="gold_0"><use xlink:href="#gold_0" x="588.0" y="1134.0"/></g><g id="gold_0"><use xlink:href="#gold_0" x="588.0" y="1428.0"/></g><g id="gold_0"><use xlink:href="#gold_0" x="588.0" y="1596.0"/></g><g id="gold_0"><use xlink:href="#gold_0" x="588.0" y="1974.0"/></g><g id="tree_0"><use xlink:href="#tree_0" x="630.0" y="168.0"/></g><g id="tree_0"><use xlink:href="#tree_0" x="630.0" y="1008.0"/></g><g id="gold_0"><use xlink:href="#gold_0" x="630.0" y="1890.0"/></g><g id="gold_0"><use xlink:href="#gold_0" x="672.0" y="588.0"/></g><g id="tree_0"><use xlink:href="#tree_0" x="672.0" y="672.0"/></g><g id="tree_0"><use xlink:href="#tree_0" x="672.0" y="1302.0"/></g><g id="tree_0"><use xlink:href="#tree_0" x="672.0" y="1554.0"/></g><defs><g id="depot_0"><path style="fill:darkgray;stroke:black;stroke-width:2;" d="M4.0 42.0 L28.0 42.0 L37.800000000000004 34.0 L37.800000000000004 7.0 L15.000000000000002 7.0 L4.0 15.000000000000002 L4.0 42.0"/><path style="fill:darkgray;stroke:black;stroke-width:2;" d="M4.0 15.000000000000002 L28.0 15.000000000000002 L37.800000000000004 7.0 M28.0 15.000000000000002 L28.0 42.0"/><polygon style="fill:darkgray;stroke:black;stroke-width:2;fill:black" points="13.125,42.0 19.09090909090909,42.0 19.09090909090909,38.0 13.125,38.0"/><ellipse rx="10.0" ry="10.0" style="fill:gold" cx="16.0" cy="26.444444444444443"/><text x="16.0" y="33.87096774193549" style="text-anchor:middle;font-family:Arial Unicode;font-size:22.105263157894736;">$</text></g></defs><g><use xlink:href="#depot_0" x="714.0" y="168.0"/></g><g id="gold_0"><use xlink:href="#gold_0" x="714.0" y="252.0"/></g><g id="gold_0"><use xlink:href="#gold_0" x="714.0" y="546.0"/></g><g id="gold_0"><use xlink:href="#gold_0" x="714.0" y="1092.0"/></g><g id="tree_0"><use xlink:href="#tree_0" x="714.0" y="1260.0"/></g><g id="tree_0"><use xlink:href="#tree_0" x="714.0" y="1302.0"/></g><g id="tree_0"><use xlink:href="#tree_0" x="714.0" y="1344.0"/></g><g id="tree_0"><use xlink:href="#tree_0" x="714.0" y="1932.0"/></g><g id="gold_0"><use xlink:href="#gold_0" x="756.0" y="0.0"/></g><g id="gold_0"><use xlink:href="#gold_0" x="756.0" y="882.0"/></g><g id="gold_0"><use xlink:href="#gold_0" x="756.0" y="1386.0"/></g><g id="gold_0"><use xlink:href="#gold_0" x="756.0" y="1722.0"/></g><g id="tree_0"><use xlink:href="#tree_0" x="756.0" y="1764.0"/></g><g id="gold_0"><use xlink:href="#gold_0" x="840.0" y="882.0"/></g><g id="gold_0"><use xlink:href="#gold_0" x="840.0" y="924.0"/></g><g id="gold_0"><use xlink:href="#gold_0" x="840.0" y="1050.0"/></g><g id="gold_0"><use xlink:href="#gold_0" x="840.0" y="1806.0"/></g><g id="gold_0"><use xlink:href="#gold_0" x="840.0" y="1848.0"/></g><g id="gold_0"><use xlink:href="#gold_0" x="882.0" y="1344.0"/></g><g id="tree_0"><use xlink:href="#tree_0" x="882.0" y="1428.0"/></g><g id="tree_0"><use xlink:href="#tree_0" x="924.0" y="1008.0"/></g><g id="gold_0"><use xlink:href="#gold_0" x="924.0" y="1974.0"/></g><g id="tree_0"><use xlink:href="#tree_0" x="924.0" y="2058.0"/></g><g id="gold_0"><use xlink:href="#gold_0" x="966.0" y="84.0"/></g><g id="gold_0"><use xlink:href="#gold_0" x="966.0" y="420.0"/></g><g id="gold_0"><use xlink:href="#gold_0" x="966.0" y="588.0"/></g><g id="tree_0"><use xlink:href="#tree_0" x="966.0" y="630.0"/></g><g id="gold_0"><use xlink:href="#gold_0" x="966.0" y="1554.0"/></g><g id="tree_0"><use xlink:href="#tree_0" x="1008.0" y="126.0"/></g><g id="gold_0"><use xlink:href="#gold_0" x="1008.0" y="588.0"/></g><g id="gold_0"><use xlink:href="#gold_0" x="1008.0" y="1008.0"/></g><g id="gold_0"><use xlink:href="#gold_0" x="1050.0" y="42.0"/></g><g id="gold_0"><use xlink:href="#gold_0" x="1092.0" y="798.0"/></g><g id="gold_0"><use xlink:href="#gold_0" x="1092.0" y="1554.0"/></g><g id="gold_0"><use xlink:href="#gold_0" x="1092.0" y="1722.0"/></g><g id="gold_0"><use xlink:href="#gold_0" x="1134.0" y="420.0"/></g><g id="gold_0"><use xlink:href="#gold_0" x="1134.0" y="1008.0"/></g><g id="gold_0"><use xlink:href="#gold_0" x="1134.0" y="1050.0"/></g><g id="gold_0"><use xlink:href="#gold_0" x="1134.0" y="1092.0"/></g><g id="gold_0"><use xlink:href="#gold_0" x="1134.0" y="1764.0"/></g><g id="tree_0"><use xlink:href="#tree_0" x="1134.0" y="1806.0"/></g><g id="gold_0"><use xlink:href="#gold_0" x="1134.0" y="1848.0"/></g><g id="gold_0"><use xlink:href="#gold_0" x="1176.0" y="126.0"/></g><g id="tree_0"><use xlink:href="#tree_0" x="1176.0" y="210.0"/></g><g id="gold_0"><use xlink:href="#gold_0" x="1176.0" y="798.0"/></g><g id="gold_0"><use xlink:href="#gold_0" x="1176.0" y="1512.0"/></g><g id="gold_0"><use xlink:href="#gold_0" x="1176.0" y="1554.0"/></g><g id="gold_0"><use xlink:href="#gold_0" x="1176.0" y="1890.0"/></g><g id="gold_0"><use xlink:href="#gold_0" x="1218.0" y="84.0"/></g><g id="gold_0"><use xlink:href="#gold_0" x="1218.0" y="294.0"/></g><g id="gold_0"><use xlink:href="#gold_0" x="1218.0" y="336.0"/></g><g id="tree_0"><use xlink:href="#tree_0" x="1218.0" y="1134.0"/></g><g id="tree_0"><use xlink:href="#tree_0" x="1260.0" y="630.0"/></g><g id="gold_0"><use xlink:href="#gold_0" x="1302.0" y="756.0"/></g><g id="gold_0"><use xlink:href="#gold_0" x="1302.0" y="924.0"/></g><g id="tree_0"><use xlink:href="#tree_0" x="1302.0" y="966.0"/></g><g id="gold_0"><use xlink:href="#gold_0" x="1302.0" y="1050.0"/></g><g id="tree_0"><use xlink:href="#tree_0" x="1302.0" y="1890.0"/></g><g id="gold_0"><use xlink:href="#gold_0" x="1344.0" y="378.0"/></g><g id="gold_0"><use xlink:href="#gold_0" x="1344.0" y="462.0"/></g><g id="tree_0"><use xlink:href="#tree_0" x="1344.0" y="672.0"/></g><g id="gold_0"><use xlink:href="#gold_0" x="1344.0" y="714.0"/></g><g id="gold_0"><use xlink:href="#gold_0" x="1344.0" y="1302.0"/></g><g id="gold_0"><use xlink:href="#gold_0" x="1386.0" y="294.0"/></g><g id="tree_0"><use xlink:href="#tree_0" x="1386.0" y="1134.0"/></g><g id="gold_0"><use xlink:href="#gold_0" x="1386.0" y="1176.0"/></g><g id="gold_0"><use xlink:href="#gold_0" x="1386.0" y="1218.0"/></g><g id="tree_0"><use xlink:href="#tree_0" x="1386.0" y="1428.0"/></g><g id="tree_0"><use xlink:href="#tree_0" x="1470.0" y="504.0"/></g><g id="tree_0"><use xlink:href="#tree_0" x="1470.0" y="1302.0"/></g><g id="gold_0"><use xlink:href="#gold_0" x="1470.0" y="1470.0"/></g><g id="tree_0"><use xlink:href="#tree_0" x="1470.0" y="1512.0"/></g><g id="tree_0"><use xlink:href="#tree_0" x="1512.0" y="1302.0"/></g><g id="gold_0"><use xlink:href="#gold_0" x="1512.0" y="1806.0"/></g><g id="tree_0"><use xlink:href="#tree_0" x="1512.0" y="1848.0"/></g><g id="tree_0"><use xlink:href="#tree_0" x="1554.0" y="378.0"/></g><g id="gold_0"><use xlink:href="#gold_0" x="1554.0" y="1092.0"/></g><g id="gold_0"><use xlink:href="#gold_0" x="1554.0" y="1176.0"/></g><g id="gold_0"><use xlink:href="#gold_0" x="1554.0" y="1260.0"/></g><g id="gold_0"><use xlink:href="#gold_0" x="1596.0" y="378.0"/></g><g id="tree_0"><use xlink:href="#tree_0" x="1596.0" y="504.0"/></g><g id="gold_0"><use xlink:href="#gold_0" x="1596.0" y="546.0"/></g><g id="gold_0"><use xlink:href="#gold_0" x="1596.0" y="798.0"/></g><g id="gold_0"><use xlink:href="#gold_0" x="1638.0" y="42.0"/></g><g id="gold_0"><use xlink:href="#gold_0" x="1638.0" y="546.0"/></g><g id="gold_0"><use xlink:href="#gold_0" x="1638.0" y="1680.0"/></g><g id="tree_0"><use xlink:href="#tree_0" x="1680.0" y="168.0"/></g><g id="gold_0"><use xlink:href="#gold_0" x="1680.0" y="210.0"/></g><g id="tree_0"><use xlink:href="#tree_0" x="1680.0" y="546.0"/></g><g id="gold_0"><use xlink:href="#gold_0" x="1680.0" y="588.0"/></g><g id="gold_0"><use xlink:href="#gold_0" x="1680.0" y="1890.0"/></g><g id="gold_0"><use xlink:href="#gold_0" x="1722.0" y="294.0"/></g><g id="gold_0"><use xlink:href="#gold_0" x="1722.0" y="462.0"/></g><g id="gold_0"><use xlink:href="#gold_0" x="1722.0" y="798.0"/></g><g id="gold_0"><use xlink:href="#gold_0" x="1722.0" y="1470.0"/></g><g id="gold_0"><use xlink:href="#gold_0" x="1722.0" y="1512.0"/></g><g id="gold_0"><use xlink:href="#gold_0" x="1722.0" y="1596.0"/></g><g id="gold_0"><use xlink:href="#gold_0" x="1764.0" y="126.0"/></g><g id="gold_0"><use xlink:href="#gold_0" x="1764.0" y="336.0"/></g><g id="gold_0"><use xlink:href="#gold_0" x="1764.0" y="630.0"/></g><g id="gold_0"><use xlink:href="#gold_0" x="1764.0" y="672.0"/></g><g id="tree_0"><use xlink:href="#tree_0" x="1806.0" y="294.0"/></g><g id="gold_0"><use xlink:href="#gold_0" x="1806.0" y="462.0"/></g><g id="gold_0"><use xlink:href="#gold_0" x="1806.0" y="672.0"/></g><g id="gold_0"><use xlink:href="#gold_0" x="1806.0" y="798.0"/></g><g id="gold_0"><use xlink:href="#gold_0" x="1806.0" y="882.0"/></g><g id="gold_0"><use xlink:href="#gold_0" x="1806.0" y="924.0"/></g><g id="gold_0"><use xlink:href="#gold_0" x="1806.0" y="1050.0"/></g><g id="tree_0"><use xlink:href="#tree_0" x="1806.0" y="1722.0"/></g><g id="gold_0"><use xlink:href="#gold_0" x="1848.0" y="0.0"/></g><g id="gold_0"><use xlink:href="#gold_0" x="1848.0" y="252.0"/></g><g id="gold_0"><use xlink:href="#gold_0" x="1848.0" y="336.0"/></g><g id="gold_0"><use xlink:href="#gold_0" x="1848.0" y="714.0"/></g><g id="gold_0"><use xlink:href="#gold_0" x="1848.0" y="1596.0"/></g><g id="gold_0"><use xlink:href="#gold_0" x="1848.0" y="1848.0"/></g><g id="gold_0"><use xlink:href="#gold_0" x="1890.0" y="630.0"/></g><g id="gold_0"><use xlink:href="#gold_0" x="1890.0" y="1050.0"/></g><g id="gold_0"><use xlink:href="#gold_0" x="1890.0" y="1386.0"/></g><g id="gold_0"><use xlink:href="#gold_0" x="1932.0" y="210.0"/></g><g id="tree_0"><use xlink:href="#tree_0" x="1932.0" y="420.0"/></g><g id="tree_0"><use xlink:href="#tree_0" x="1932.0" y="504.0"/></g><g id="gold_0"><use xlink:href="#gold_0" x="1932.0" y="1596.0"/></g><g id="gold_0"><use xlink:href="#gold_0" x="1932.0" y="1932.0"/></g><g id="gold_0"><use xlink:href="#gold_0" x="1932.0" y="2016.0"/></g><g id="gold_0"><use xlink:href="#gold_0" x="1974.0" y="84.0"/></g><g id="tree_0"><use xlink:href="#tree_0" x="1974.0" y="168.0"/></g><g id="gold_0"><use xlink:href="#gold_0" x="1974.0" y="420.0"/></g><g id="gold_0"><use xlink:href="#gold_0" x="1974.0" y="966.0"/></g><g id="gold_0"><use xlink:href="#gold_0" x="1974.0" y="1344.0"/></g><g id="gold_0"><use xlink:href="#gold_0" x="1974.0" y="1428.0"/></g><g id="tree_0"><use xlink:href="#tree_0" x="1974.0" y="1848.0"/></g><g id="gold_0"><use xlink:href="#gold_0" x="2016.0" y="798.0"/></g><g id="gold_0"><use xlink:href="#gold_0" x="2016.0" y="1134.0"/></g><g id="gold_0"><use xlink:href="#gold_0" x="2016.0" y="1218.0"/></g><g id="gold_0"><use xlink:href="#gold_0" x="2058.0" y="378.0"/></g><g id="tree_0"><use xlink:href="#tree_0" x="2058.0" y="966.0"/></g><g id="tree_0"><use xlink:href="#tree_0" x="2058.0" y="1428.0"/></g><g id="0"><g><ellipse rx="5.25" ry="5.25" style="fill:red;" cx="735.0" cy="892.5"/><polygon style="stroke:red;stroke-width:2.0;fill:red;" points="730.8,899.5 739.2,899.5 739.2,909.3 730.8,909.3"/><path style="stroke:red;stroke-width:2.0;" d="M733.0 909.3 L730.8 922.5 M737.0 909.3 L739.2 922.5"/><path style="stroke:red;stroke-width:2.0;" d="M739.2 902.5 L746.0526315789474 899.5 M730.8 902.5 L723.9473684210526 899.5"/></g><g id="agentAxe"><path style="stroke:red;stroke-width:2.0;fill:red;" d=" M747.0 892.5 L747.0 903.0"/><path style="stroke:red;stroke-width:1;fill:red;" d="M741.0 892.5 L753.0 892.5 L743.0 889.5Z"/></g><ellipse rx="4.2" ry="4.2" style="fill:#FEEFB8;" cx="735.0" cy="892.5"/><text x="735.0" y="895.5" style="font-family:Arial Unicode;fill:black;font-size:7.0px;text-anchor:middle;">0</text></g><g id="1"><g><ellipse rx="5.25" ry="5.25" style="fill:red;" cx="357.0" cy="2068.5"/><polygon style="stroke:red;stroke-width:2.0;fill:red;" points="352.8,2075.5 361.2,2075.5 361.2,2085.3 352.8,2085.3"/><path style="stroke:red;stroke-width:2.0;" d="M355.0 2085.3 L352.8 2098.5 M359.0 2085.3 L361.2 2098.5"/><path style="stroke:red;stroke-width:2.0;" d="M361.2 2078.5 L368.05263157894734 2075.5 M352.8 2078.5 L345.94736842105266 2075.5"/></g><g id="agentAxe"><path style="stroke:red;stroke-width:2.0;fill:red;" d=" M369.0 2068.5 L369.0 2079.0"/><path style="stroke:red;stroke-width:1;fill:red;" d="M363.0 2068.5 L375.0 2068.5 L365.0 2065.5Z"/></g><ellipse rx="4.2" ry="4.2" style="fill:#FEEFB8;" cx="357.0" cy="2068.5"/><text x="357.0" y="2071.5" style="font-family:Arial Unicode;fill:black;font-size:7.0px;text-anchor:middle;">1</text></g><g id="2"><g><ellipse rx="5.25" ry="5.25" style="fill:red;" cx="1113.0" cy="640.5"/><polygon style="stroke:red;stroke-width:2.0;fill:red;" points="1108.8,647.5 1117.2,647.5 1117.2,657.3 1108.8,657.3"/><path style="stroke:red;stroke-width:2.0;" d="M1111.0 657.3 L1108.8 670.5 M1115.0 657.3 L1117.2 670.5"/><path style="stroke:red;stroke-width:2.0;" d="M1117.2 650.5 L1124.0526315789473 647.5 M1108.8 650.5 L1101.9473684210527 647.5"/></g><g id="agentAxe"><path style="stroke:red;stroke-width:2.0;fill:red;" d=" M1125.0 640.5 L1125.0 651.0"/><path style="stroke:red;stroke-width:1;fill:red;" d="M1119.0 640.5 L1131.0 640.5 L1121.0 637.5Z"/></g><ellipse rx="4.2" ry="4.2" style="fill:#FEEFB8;" cx="1113.0" cy="640.5"/><text x="1113.0" y="643.5" style="font-family:Arial Unicode;fill:black;font-size:7.0px;text-anchor:middle;">2</text></g><g id="3"><g><ellipse rx="5.25" ry="5.25" style="fill:red;" cx="1953.0" cy="136.5"/><polygon style="stroke:red;stroke-width:2.0;fill:red;" points="1948.8,143.5 1957.2,143.5 1957.2,153.3 1948.8,153.3"/><path style="stroke:red;stroke-width:2.0;" d="M1951.0 153.3 L1948.8 166.5 M1955.0 153.3 L1957.2 166.5"/><path style="stroke:red;stroke-width:2.0;" d="M1957.2 146.5 L1964.0526315789473 143.5 M1948.8 146.5 L1941.9473684210527 143.5"/></g><g id="agentAxe"><path style="stroke:red;stroke-width:2.0;fill:red;" d=" M1965.0 136.5 L1965.0 147.0"/><path style="stroke:red;stroke-width:1;fill:red;" d="M1959.0 136.5 L1971.0 136.5 L1961.0 133.5Z"/></g><ellipse rx="4.2" ry="4.2" style="fill:#FEEFB8;" cx="1953.0" cy="136.5"/><text x="1953.0" y="139.5" style="font-family:Arial Unicode;fill:black;font-size:7.0px;text-anchor:middle;">3</text></g><g id="4"><g><ellipse rx="5.25" ry="5.25" style="fill:red;" cx="357.0" cy="136.5"/><polygon style="stroke:red;stroke-width:2.0;fill:red;" points="352.8,143.5 361.2,143.5 361.2,153.3 352.8,153.3"/><path style="stroke:red;stroke-width:2.0;" d="M355.0 153.3 L352.8 166.5 M359.0 153.3 L361.2 166.5"/><path style="stroke:red;stroke-width:2.0;" d="M361.2 146.5 L368.05263157894734 143.5 M352.8 146.5 L345.94736842105266 143.5"/></g><g id="agentAxe"><path style="stroke:red;stroke-width:2.0;fill:red;" d=" M369.0 136.5 L369.0 147.0"/><path style="stroke:red;stroke-width:1;fill:red;" d="M363.0 136.5 L375.0 136.5 L365.0 133.5Z"/></g><ellipse rx="4.2" ry="4.2" style="fill:#FEEFB8;" cx="357.0" cy="136.5"/><text x="357.0" y="139.5" style="font-family:Arial Unicode;fill:black;font-size:7.0px;text-anchor:middle;">4</text></g><g id="5"><g><ellipse rx="5.25" ry="5.25" style="fill:red;" cx="63.0" cy="1522.5"/><polygon style="stroke:red;stroke-width:2.0;fill:red;" points="58.8,1529.5 67.2,1529.5 67.2,1539.3 58.8,1539.3"/><path style="stroke:red;stroke-width:2.0;" d="M61.0 1539.3 L58.8 1552.5 M65.0 1539.3 L67.2 1552.5"/><path style="stroke:red;stroke-width:2.0;" d="M67.2 1532.5 L74.05263157894737 1529.5 M58.8 1532.5 L51.94736842105263 1529.5"/></g><g id="agentAxe"><path style="stroke:red;stroke-width:2.0;fill:red;" d=" M75.0 1522.5 L75.0 1533.0"/><path style="stroke:red;stroke-width:1;fill:red;" d="M69.0 1522.5 L81.0 1522.5 L71.0 1519.5Z"/></g><ellipse rx="4.2" ry="4.2" style="fill:#FEEFB8;" cx="63.0" cy="1522.5"/><text x="63.0" y="1525.5" style="font-family:Arial Unicode;fill:black;font-size:7.0px;text-anchor:middle;">5</text></g><g id="6"><g><ellipse rx="5.25" ry="5.25" style="fill:blue;" cx="1701.0" cy="766.5"/><polygon style="stroke:blue;stroke-width:2.0;fill:blue;" points="1696.8,773.5 1705.2,773.5 1705.2,783.3 1696.8,783.3"/><path style="stroke:blue;stroke-width:2.0;" d="M1699.0 783.3 L1696.8 796.5 M1703.0 783.3 L1705.2 796.5"/><path style="stroke:blue;stroke-width:2.0;" d="M1705.2 776.5 L1712.0526315789473 773.5 M1696.8 776.5 L1689.9473684210527 773.5"/></g><g id="agentAxe"><path style="stroke:blue;stroke-width:2.0;fill:blue;" d=" M1713.0 766.5 L1713.0 777.0"/><path style="stroke:blue;stroke-width:1;fill:blue;" d="M1707.0 766.5 L1719.0 766.5 L1709.0 763.5Z"/></g><ellipse rx="4.2" ry="4.2" style="fill:#FEEFB8;" cx="1701.0" cy="766.5"/><text x="1701.0" y="769.5" style="font-family:Arial Unicode;fill:black;font-size:7.0px;text-anchor:middle;">6</text></g><g id="7"><g><ellipse rx="5.25" ry="5.25" style="fill:blue;" cx="1491.0" cy="1396.5"/><polygon style="stroke:blue;stroke-width:2.0;fill:blue;" points="1486.8,1403.5 1495.2,1403.5 1495.2,1413.3 1486.8,1413.3"/><path style="stroke:blue;stroke-width:2.0;" d="M1489.0 1413.3 L1486.8 1426.5 M1493.0 1413.3 L1495.2 1426.5"/><path style="stroke:blue;stroke-width:2.0;" d="M1495.2 1406.5 L1502.0526315789473 1403.5 M1486.8 1406.5 L1479.9473684210527 1403.5"/></g><g id="agentAxe"><path style="stroke:blue;stroke-width:2.0;fill:blue;" d=" M1503.0 1396.5 L1503.0 1407.0"/><path style="stroke:blue;stroke-width:1;fill:blue;" d="M1497.0 1396.5 L1509.0 1396.5 L1499.0 1393.5Z"/></g><ellipse rx="4.2" ry="4.2" style="fill:#FEEFB8;" cx="1491.0" cy="1396.5"/><text x="1491.0" y="1399.5" style="font-family:Arial Unicode;fill:black;font-size:7.0px;text-anchor:middle;">7</text></g><g id="8"><g><ellipse rx="5.25" ry="5.25" style="fill:blue;" cx="987.0" cy="976.5"/><polygon style="stroke:blue;stroke-width:2.0;fill:blue;" points="982.8,983.5 991.2,983.5 991.2,993.3 982.8,993.3"/><path style="stroke:blue;stroke-width:2.0;" d="M985.0 993.3 L982.8 1006.5 M989.0 993.3 L991.2 1006.5"/><path style="stroke:blue;stroke-width:2.0;" d="M991.2 986.5 L998.0526315789474 983.5 M982.8 986.5 L975.9473684210526 983.5"/></g><g id="agentAxe"><path style="stroke:blue;stroke-width:2.0;fill:blue;" d=" M999.0 976.5 L999.0 987.0"/><path style="stroke:blue;stroke-width:1;fill:blue;" d="M993.0 976.5 L1005.0 976.5 L995.0 973.5Z"/></g><ellipse rx="4.2" ry="4.2" style="fill:#FEEFB8;" cx="987.0" cy="976.5"/><text x="987.0" y="979.5" style="font-family:Arial Unicode;fill:black;font-size:7.0px;text-anchor:middle;">8</text></g><g id="9"><g><ellipse rx="5.25" ry="5.25" style="fill:blue;" cx="651.0" cy="1942.5"/><polygon style="stroke:blue;stroke-width:2.0;fill:blue;" points="646.8,1949.5 655.2,1949.5 655.2,1959.3 646.8,1959.3"/><path style="stroke:blue;stroke-width:2.0;" d="M649.0 1959.3 L646.8 1972.5 M653.0 1959.3 L655.2 1972.5"/><path style="stroke:blue;stroke-width:2.0;" d="M655.2 1952.5 L662.0526315789474 1949.5 M646.8 1952.5 L639.9473684210526 1949.5"/></g><g id="agentAxe"><path style="stroke:blue;stroke-width:2.0;fill:blue;" d=" M663.0 1942.5 L663.0 1953.0"/><path style="stroke:blue;stroke-width:1;fill:blue;" d="M657.0 1942.5 L669.0 1942.5 L659.0 1939.5Z"/></g><ellipse rx="4.2" ry="4.2" style="fill:#FEEFB8;" cx="651.0" cy="1942.5"/><text x="651.0" y="1945.5" style="font-family:Arial Unicode;fill:black;font-size:7.0px;text-anchor:middle;">9</text></g><g id="10"><g><ellipse rx="5.25" ry="5.25" style="fill:blue;" cx="2079.0" cy="1480.5"/><polygon style="stroke:blue;stroke-width:2.0;fill:blue;" points="2074.8,1487.5 2083.2,1487.5 2083.2,1497.3 2074.8,1497.3"/><path style="stroke:blue;stroke-width:2.0;" d="M2077.0 1497.3 L2074.8 1510.5 M2081.0 1497.3 L2083.2 1510.5"/><path style="stroke:blue;stroke-width:2.0;" d="M2083.2 1490.5 L2090.0526315789475 1487.5 M2074.8 1490.5 L2067.9473684210525 1487.5"/></g><g id="agentAxe"><path style="stroke:blue;stroke-width:2.0;fill:blue;" d=" M2091.0 1480.5 L2091.0 1491.0"/><path style="stroke:blue;stroke-width:1;fill:blue;" d="M2085.0 1480.5 L2097.0 1480.5 L2087.0 1477.5Z"/></g><ellipse rx="4.2" ry="4.2" style="fill:#FEEFB8;" cx="2079.0" cy="1480.5"/><text x="2079.0" y="1483.5" style="font-family:Arial Unicode;fill:black;font-size:7.0px;text-anchor:middle;">10</text></g><g id="11"><g><ellipse rx="5.25" ry="5.25" style="fill:blue;" cx="1659.0" cy="724.5"/><polygon style="stroke:blue;stroke-width:2.0;fill:blue;" points="1654.8,731.5 1663.2,731.5 1663.2,741.3 1654.8,741.3"/><path style="stroke:blue;stroke-width:2.0;" d="M1657.0 741.3 L1654.8 754.5 M1661.0 741.3 L1663.2 754.5"/><path style="stroke:blue;stroke-width:2.0;" d="M1663.2 734.5 L1670.0526315789473 731.5 M1654.8 734.5 L1647.9473684210527 731.5"/></g><g id="agentAxe"><path style="stroke:blue;stroke-width:2.0;fill:blue;" d=" M1671.0 724.5 L1671.0 735.0"/><path style="stroke:blue;stroke-width:1;fill:blue;" d="M1665.0 724.5 L1677.0 724.5 L1667.0 721.5Z"/></g><ellipse rx="4.2" ry="4.2" style="fill:#FEEFB8;" cx="1659.0" cy="724.5"/><text x="1659.0" y="727.5" style="font-family:Arial Unicode;fill:black;font-size:7.0px;text-anchor:middle;">11</text></g><g id="statistik"><text x="2172.0" y="25.0" style="font-family:Arial Unicode;font-size:25px;">Step</text><text x="2529.0" y="25.0" style="font-family:Arial Unicode;font-size:25px;">10</text><text x="2172.0" y="55.0" style="font-family:Arial Unicode;font-size:25px;">participant Score</text><text x="2529.0" y="55.0" style="font-family:Arial Unicode;font-size:25px;">0</text><text x="2172.0" y="85.0" style="font-family:Arial Unicode;font-size:25px;">AC07bot Score</text><text x="2529.0" y="85.0" style="font-family:Arial Unicode;font-size:25px;">0</text><text x="2172.0" y="115.0" style="font-family:Arial Unicode;font-size:25px;">Depot</text><text x="2529.0" y="115.0" style="font-family:Arial Unicode;font-size:25px;">(17,4)</text><text x="2172.0" y="145.0" style="font-family:Arial Unicode;font-size:25px;">GoldItems</text><text x="2529.0" y="145.0" style="font-family:Arial Unicode;font-size:25px;">150</text><text x="2172.0" y="175.0" style="font-family:Arial Unicode;font-size:25px;">Size</text><text x="2529.0" y="175.0" style="font-family:Arial Unicode;font-size:25px;">(51,51)</text><text x="2172.0" y="205.0" style="font-family:Arial Unicode;font-size:25px;">Fog Prob</text><text x="2529.0" y="205.0" style="font-family:Arial Unicode;font-size:25px;">10%</text><text x="2172.0" y="235.0" style="font-family:Arial Unicode;font-size:25px;">Skill Prob</text><text x="2529.0" y="235.0" style="font-family:Arial Unicode;font-size:25px;">10%</text><text x="2172.0" y="265.0" style="font-family:Arial Unicode;font-size:25px;">0:Name</text><text x="2529.0" y="265.0" style="font-family:Arial Unicode;font-size:25px;">participant1</text><text x="2172.0" y="295.0" style="font-family:Arial Unicode;font-size:25px;">0</text><text x="2529.0" y="295.0" style="font-family:Arial Unicode;font-size:25px;">10%,   skip</text><text x="2172.0" y="325.0" style="font-family:Arial Unicode;font-size:25px;">1:Name</text><text x="2529.0" y="325.0" style="font-family:Arial Unicode;font-size:25px;">participant2</text><text x="2172.0" y="355.0" style="font-family:Arial Unicode;font-size:25px;">1</text><text x="2529.0" y="355.0" style="font-family:Arial Unicode;font-size:25px;">10%,   skip</text><text x="2172.0" y="385.0" style="font-family:Arial Unicode;font-size:25px;">2:Name</text><text x="2529.0" y="385.0" style="font-family:Arial Unicode;font-size:25px;">participant3</text><text x="2172.0" y="415.0" style="font-family:Arial Unicode;font-size:25px;">2</text><text x="2529.0" y="415.0" style="font-family:Arial Unicode;font-size:25px;">10%,   skip</text><text x="2172.0" y="445.0" style="font-family:Arial Unicode;font-size:25px;">3:Name</text><text x="2529.0" y="445.0" style="font-family:Arial Unicode;font-size:25px;">participant4</text><text x="2172.0" y="475.0" style="font-family:Arial Unicode;font-size:25px;">3</text><text x="2529.0" y="475.0" style="font-family:Arial Unicode;font-size:25px;">10%,   skip</text><text x="2172.0" y="505.0" style="font-family:Arial Unicode;font-size:25px;">4:Name</text><text x="2529.0" y="505.0" style="font-family:Arial Unicode;font-size:25px;">participant5</text><text x="2172.0" y="535.0" style="font-family:Arial Unicode;font-size:25px;">4</text><text x="2529.0" y="535.0" style="font-family:Arial Unicode;font-size:25px;">10%,   skip</text><text x="2172.0" y="565.0" style="font-family:Arial Unicode;font-size:25px;">5:Name</text><text x="2529.0" y="565.0" style="font-family:Arial Unicode;font-size:25px;">participant6</text><text x="2172.0" y="595.0" style="font-family:Arial Unicode;font-size:25px;">5</text><text x="2529.0" y="595.0" style="font-family:Arial Unicode;font-size:25px;">10%,   skip</text><text x="2172.0" y="625.0" style="font-family:Arial Unicode;font-size:25px;">6:Name</text><text x="2529.0" y="625.0" style="font-family:Arial Unicode;font-size:25px;">AC07bot1</text><text x="2172.0" y="655.0" style="font-family:Arial Unicode;font-size:25px;">6</text><text x="2529.0" y="655.0" style="font-family:Arial Unicode;font-size:25px;">10%,   skip</text><text x="2172.0" y="685.0" style="font-family:Arial Unicode;font-size:25px;">7:Name</text><text x="2529.0" y="685.0" style="font-family:Arial Unicode;font-size:25px;">AC07bot2</text><text x="2172.0" y="715.0" style="font-family:Arial Unicode;font-size:25px;">7</text><text x="2529.0" y="715.0" style="font-family:Arial Unicode;font-size:25px;">10%,   skip</text><text x="2172.0" y="745.0" style="font-family:Arial Unicode;font-size:25px;">8:Name</text><text x="2529.0" y="745.0" style="font-family:Arial Unicode;font-size:25px;">AC07bot3</text><text x="2172.0" y="775.0" style="font-family:Arial Unicode;font-size:25px;">8</text><text x="2529.0" y="775.0" style="font-family:Arial Unicode;font-size:25px;">10%,   skip</text><text x="2172.0" y="805.0" style="font-family:Arial Unicode;font-size:25px;">9:Name</text><text x="2529.0" y="805.0" style="font-family:Arial Unicode;font-size:25px;">AC07bot4</text><text x="2172.0" y="835.0" style="font-family:Arial Unicode;font-size:25px;">9</text><text x="2529.0" y="835.0" style="font-family:Arial Unicode;font-size:25px;">10%,   null (f)</text><text x="2172.0" y="865.0" style="font-family:Arial Unicode;font-size:25px;">10:Name</text><text x="2529.0" y="865.0" style="font-family:Arial Unicode;font-size:25px;">AC07bot5</text><text x="2172.0" y="895.0" style="font-family:Arial Unicode;font-size:25px;">10</text><text x="2529.0" y="895.0" style="font-family:Arial Unicode;font-size:25px;">10%,   skip</text><text x="2172.0" y="925.0" style="font-family:Arial Unicode;font-size:25px;">11:Name</text><text x="2529.0" y="925.0" style="font-family:Arial Unicode;font-size:25px;">AC07bot6</text><text x="2172.0" y="955.0" style="font-family:Arial Unicode;font-size:25px;">11</text><text x="2529.0" y="955.0" style="font-family:Arial Unicode;font-size:25px;">10%,   skip</text></g></g></svg>